<svg xmlns="http://www.w3.org/2000/svg" viewBox="0 0 957.85 266.52"><path d="M142 86.16c0-22.27-11-34-37.53-34H70.61v68.27h33.84c26.48 0 37.53-11.32 37.53-34.32m73.92.73c0 32.13-16.92 53.67-49.28 66.44l60 107.7h-76.19l-48.19-93.82H70.61V261H0V5.48h115.48c69.15 0 100.42 33.23 100.42 81.41M356 47.63c-29.42 0-47.45 25.56-47.45 86.53v.72c0 61 18 86.53 47.45 86.53 29.06 0 47.08-25.56 47.08-86.53v-.72c0-61-18-86.53-47.08-86.53m-87.9-11.85C290.14 12 319.57 0 356 0s65.84 12 87.54 35.78c22.06 23.74 33.1 55.86 33.1 97.12v.72q0 61.89-33.1 97.49c-21.7 23.73-51.12 35.41-87.54 35.41s-65.84-11.68-87.9-35.41-33.1-56.23-33.1-97.49v-.72c0-41.26 11-73.38 33.11-97.12m478.62-29.7v54.04h69.89v201.52h70.98V60.12h70.25V6.08H746.73zM576.85 261.04l.2-132.45 93.63-76.07-63.49 94.91-.02 2.05 53.19 111.56h79.69l-69.62-141.08L728.9 6.01h-40.21l-111.58 80.1.12-80.1h-70.58v255.03h70.2z" fill="#fff" data-name="Layer 2"/></svg>